{"title":"The Wolf Of Wall Street 2013 DVDScr AAC x264-SSDD","uid":9452842,"size":1298388081,"categoryP":"video","categoryS":"movies","magnet":"?xt=urn:btih:8731a13384d9ca083e599b0a3cc1c8305e149bcd&amp;dn=The+Wolf+Of+Wall+Street+2013+DVDScr+AAC+x264-SSDD&amp;tr=udp%3A%2F%2Ftracker.openbittorrent.com%3A80&amp;tr=udp%3A%2F%2Fopen.demonii.com%3A1337&amp;tr=udp%3A%2F%2Ftracker.coppersurfer.tk%3A6969&amp;tr=udp%3A%2F%2Fexodus.desync.com%3A6969","seeders":1,"leechers":0,"uploader":"xxxlavalxxx","files":-1,"time":1389208473,"description":"\n &lt;a href=&quot;\nhttp://www.imdb.com/title/tt0993846/&quot; rel=&quot;nofollow&quot; target=&quot;_NEW&quot;&gt;\nhttp://www.imdb.com/title/tt0993846/&lt;/a&gt;\n\n\nBased on the true story of Jordan Belfort, from his rise to a wealthy stockbroker living the high life to his fall involving crime, corruption and the federal government.\n\nDirector: Martin Scorsese\nWriters: Terence Winter (screenplay), Jordan Belfort (book)\nStars: Leonardo DiCaprio, Jonah Hill, Margot Robbie \nGenres: Biography | Comedy | Crime | Drama\nCountry: USA\nLanguage: English\n\n\n\nSource -  A Friend\n\nPlot - Based on the true story of Jordan Belfort, from his rise to a wealthy stockbroker living the high life to his fall involving crime, corruption and the federal government.\n\nNOTES - Enjoy :) Source was not the best but we did what we could.  No one is forcing you to download it.\n\nGeneral\nComplete name                            : The Wolf Of Wall Street 2013 DVDScr AAC x264-SSDD.mp4\nFormat                                   : MPEG-4\nFormat profile                           : Base Media\nCodec ID                                 : isom\nFile size                                : 1.20 GiB\nDuration                                 : 3h 3mn\nOverall bit rate mode                    : Variable\nOverall bit rate                         : 933 Kbps\n\nVideo\nID                                       : 1\nFormat                                   : AVC\nFormat/Info                              : Advanced Video Codec\nFormat profile                           : &lt;a class=&quot;__cf_email__&quot; href=&quot;/cdn-cgi/l/email-protection&quot; data-cfemail=&quot;b0f8d9d7d8f0fc849e81&quot;&gt;[email&amp;#160;protected]&lt;/a&gt;&lt;script cf-hash='f9e31' type=&quot;text/javascript&quot;&gt;\n/* &lt;![CDATA[ */!function(){try{var t=&quot;currentScript&quot;in document?document.currentScript:function(){for(var t=document.getElementsByTagName(&quot;script&quot;),e=t.length;e--;)if(t[e].getAttribute(&quot;cf-hash&quot;))return t[e]}();if(t&amp;&amp;t.previousSibling){var e,r,n,i,c=t.previousSibling,a=c.getAttribute(&quot;data-cfemail&quot;);if(a){for(e=&quot;&quot;,r=parseInt(a.substr(0,2),16),n=2;a.length-n;n+=2)i=parseInt(a.substr(n,2),16)^r,e+=String.fromCharCode(i);e=document.createTextNode(e),c.parentNode.replaceChild(e,c)}}}catch(u){}}();/* ]]&gt; */&lt;/script&gt;\nFormat settings, CABAC                   : Yes\nFormat settings, ReFrames                : 3 frames\nCodec ID                                 : avc1\nCodec ID/Info                            : Advanced Video Coding\nDuration                                 : 3h 3mn\nBit rate mode                            : Variable\nBit rate                                 : 850 Kbps\nMaximum bit rate                         : 40.0 Mbps\nWidth                                    : 656 pixels\nHeight                                   : 256 pixels\nDisplay aspect ratio                     : 2.563\nFrame rate mode                          : Constant\nFrame rate                               : 29.970 fps\nColor space                              : YUV\nChroma subsampling                       : 4:2:0\nBit depth                                : 8 bits\nScan type                                : Progressive\nBits/(Pixel*Frame)                       : 0.169\nStream size                              : 1.09 GiB (91%)\nWriting library                          : x264 core 140 r2377 1ca7bb9\n\nAudio\nID                                       : 2\nFormat                                   : AAC\nFormat/Info                              : Advanced Audio Codec\nFormat profile                           : LC\nCodec ID                                 : 40\nDuration                                 : 3h 3mn\nBit rate mode                            : Variable\nBit rate                                 : 80.0 Kbps\nMaximum bit rate                         : 88.7 Kbps\nChannel count                            : 2 channels\nChannel positions                        : Front: L R\nSampling rate                            : 48.0 KHz\nCompression mode                         : Lossy\nStream size                              : 105 MiB (9%)\n\n\n\nscreens\n &lt;a href=&quot;\nhttp://i.imgur.com/uB3mcxg.png&quot; rel=&quot;nofollow&quot; target=&quot;_NEW&quot;&gt;\nhttp://i.imgur.com/uB3mcxg.png&lt;/a&gt; &lt;a href=&quot;\nhttp://i.imgur.com/WPSAodS.png&quot; rel=&quot;nofollow&quot; target=&quot;_NEW&quot;&gt;\nhttp://i.imgur.com/WPSAodS.png&lt;/a&gt; &lt;a href=&quot;\nhttp://i.imgur.com/fuRQBvj.png&quot; rel=&quot;nofollow&quot; target=&quot;_NEW&quot;&gt;\nhttp://i.imgur.com/fuRQBvj.png&lt;/a&gt; &lt;a href=&quot;\nhttp://i.imgur.com/QhPvOMe.png&quot; rel=&quot;nofollow&quot; target=&quot;_NEW&quot;&gt;\nhttp://i.imgur.com/QhPvOMe.png&lt;/a&gt;","torrent":{"xt":"urn:btih:8731a13384d9ca083e599b0a3cc1c8305e149bcd","amp;dn":"The+Wolf+Of+Wall+Street+2013+DVDScr+AAC+x264-SSDD","amp;tr":["udp%3A%2F%2Ftracker.openbittorrent.com%3A80","udp%3A%2F%2Fopen.demonii.com%3A1337","udp%3A%2F%2Ftracker.coppersurfer.tk%3A6969","udp%3A%2F%2Fexodus.desync.com%3A6969"],"infoHash":"8731a13384d9ca083e599b0a3cc1c8305e149bcd","infoHashBuffer":{"type":"Buffer","data":[135,49,161,51,132,217,202,8,62,89,155,10,60,193,200,48,94,20,155,205]},"announce":[],"urlList":[]}}